<svg id="Layer_1" data-name="Layer 1" xmlns="http://www.w3.org/2000/svg" viewBox="0 0 491.38 216"><path d="M331.42,82.58a1.63,1.63,0,0,1,1.38-.84c.71-.06,1.42-.14,2.13-.14h30.25a8.59,8.59,0,0,1,1.75.18,1.77,1.77,0,0,1,1.63,1.8,13.37,13.37,0,0,1,0,1.9c-.06,1,0,2.11,0,3.17,0,2.46,0,4.91-.18,7.36a11.05,11.05,0,0,0,.19,3,2.25,2.25,0,0,0,1.54,1.73,5.93,5.93,0,0,0,1.87.33q14.76,0,29.51,0a5.1,5.1,0,0,0,2-.38,2.9,2.9,0,0,0,1.67-2.59,81.1,81.1,0,0,0,.1-8.25,8.45,8.45,0,0,0-.54-3.32A14.88,14.88,0,0,0,403,84l-.69-1a1,1,0,0,1,.67-1.67,7.88,7.88,0,0,1,1.53-.17h31.36a5.12,5.12,0,0,1,1.23.16A1.57,1.57,0,0,1,438.36,83a2.85,2.85,0,0,1-.07.51c-.3,1.09-.59,2.18-.9,3.27-.61,2.14-1.23,4.29-1.86,6.43-.31,1.06-.66,2.11-1,3.17a7.14,7.14,0,0,0-.33,2.68,2,2,0,0,0,1.39,1.74,6.36,6.36,0,0,0,2.52.41h18.45a10.88,10.88,0,0,1,1.4,0,5,5,0,0,1,1.33.36.94.94,0,0,1,.47,1.36,2.1,2.1,0,0,1-1.94,1.35c-1.27.1-2.55.15-3.82.15h-25.9a20.29,20.29,0,0,1-2.34-.16,1.54,1.54,0,0,1-1.34-1.92c.18-.86.4-1.72.64-2.57.31-1.11.65-2.22,1-3.33q.72-2.58,1.43-5.17a3.53,3.53,0,0,0,.11-.65,2.39,2.39,0,0,0-2.37-2.71,54.31,54.31,0,0,0-6.63-.13,8,8,0,0,0-1.81.26,2.43,2.43,0,0,0-1.89,1.78,6.2,6.2,0,0,0-.27,1.66c0,3.14,0,6.29,0,9.44a7.94,7.94,0,0,1-.18,1.75,1.75,1.75,0,0,1-1.55,1.47,14,14,0,0,1-1.83.14q-20,0-40.06,0c-1.27,0-2.54.21-3.81.24a18.28,18.28,0,0,1-4.05-.11,2.36,2.36,0,0,1-2.07-1.83c-.31-1.34-.61-2.68-.89-4-.54-2.57-1-5.15-1.61-7.71a3.21,3.21,0,0,0-2.65-2.64,9,9,0,0,0-1.46-.17q-3.06,0-6.12,0a13.29,13.29,0,0,0-1.9.18,2.62,2.62,0,0,0-2.17,2.15,6.52,6.52,0,0,0-.16,1.53c0,2.9,0,5.8,0,8.71,0,.49,0,1,0,1.47a2.11,2.11,0,0,1-2.27,2.33c-.59,0-1.18,0-1.77,0H297c-1.57,0-3.14.13-4.71.1a15,15,0,0,1-2.39-.34,1.45,1.45,0,0,1-1.05-.85,7.15,7.15,0,0,1-.6-1.57c-.61-2.91-1.17-5.82-1.77-8.73a23,23,0,0,0-.72-2.62,3.17,3.17,0,0,0-3.21-2.23c-2.63,0-5.26,0-7.9,0a4.28,4.28,0,0,0-1.62.42,2.55,2.55,0,0,0-1.42,2.26q-.13,1.32-.15,2.64c0,2.12,0,4.23,0,6.35,0,.56.1,1.12.11,1.68a4.13,4.13,0,0,1-.45,2.49,1.77,1.77,0,0,1-1.21.78,9.35,9.35,0,0,1-1.75.17H144.88a14.68,14.68,0,0,1-2-.16,2,2,0,0,1-1.57-1.57,12.44,12.44,0,0,1-.16-1.83c0-3.34,0-6.69,0-10a3.6,3.6,0,0,0-.63-2.09,2.14,2.14,0,0,0-1.35-1A12.45,12.45,0,0,0,137,88.1c-1.87,0-3.74,0-5.6,0a10.94,10.94,0,0,0-1.9.21,2.59,2.59,0,0,0-2.23,2.32,8.08,8.08,0,0,0-.13,1.39q0,5.31,0,10.62a2.27,2.27,0,0,1-1.25,2.1,1,1,0,0,1-.4.15c-.71.06-1.42.15-2.13.15H32a8.68,8.68,0,0,1-2.68-.37,2.32,2.32,0,0,1-1.39-1.35,1.08,1.08,0,0,1,.86-1.53,8,8,0,0,1,1.38-.14c5.17,0,10.33,0,15.5,0a10.15,10.15,0,0,0,2-.21A2.71,2.71,0,0,0,50,99a9.53,9.53,0,0,0,.13-1.31c0-2.63,0-5.27,0-7.9a6.53,6.53,0,0,0-.83-3.32,18.42,18.42,0,0,0-1.12-1.55c-.35-.47-.73-.92-1.07-1.4a1.31,1.31,0,0,1-.21-.61.89.89,0,0,1,.87-1.13,9.79,9.79,0,0,1,1.53-.15q3.39,0,6.79,0a15.22,15.22,0,0,1,1.9.16,2.23,2.23,0,0,1,1.58,1.93,7.3,7.3,0,0,1,0,.81c0,4.55,0,9.1,0,13.65a5.11,5.11,0,0,0,.15,1.23,2.69,2.69,0,0,0,2.68,2.12c1.47.1,2.94.14,4.41.14q22.92,0,45.82,0a15.89,15.89,0,0,0,2.92-.3,2.29,2.29,0,0,0,1.88-1.77,8.53,8.53,0,0,0,.27-1.88c0-4.21,0-8.41,0-12.62a15.26,15.26,0,0,1,.18-1.9,2,2,0,0,1,1.93-1.72c1-.07,2-.13,3-.14,3.67,0,7.33,0,11,0s7.56,0,11.35,0c.95,0,1.91.07,2.86.15A1.85,1.85,0,0,1,149.85,83a5.8,5.8,0,0,1,.16,1.31c0,4.33,0,8.66,0,13a9.21,9.21,0,0,0,.18,1.82,2.9,2.9,0,0,0,2.8,2.38c3.78.28,7.57.1,11.35.12,7.72,0,15.45,0,23.17,0a12.15,12.15,0,0,0,2.55-.28,2.62,2.62,0,0,0,2.15-2.24,8.43,8.43,0,0,0,.13-1.32c0-2.33,0-4.67,0-7a6.55,6.55,0,0,0-1.58-4.4,16.39,16.39,0,0,1-1.47-2,1,1,0,0,1,.58-1.56,9.23,9.23,0,0,1,2-.31c1.4,0,2.8,0,4.2,0A2.72,2.72,0,0,1,199,84.58c.63,1.84,1.15,3.71,1.72,5.57.22.72.42,1.46.63,2.18.51,1.72,1,3.45,1.54,5.16a12.4,12.4,0,0,0,.79,2.05,3.53,3.53,0,0,0,3,2c2.62.23,5.25.08,7.88.11a10.77,10.77,0,0,0,2.11-.26,2.65,2.65,0,0,0,2.14-2.27,9.27,9.27,0,0,0,.17-1.9q0-3.39,0-6.78c0-1.5-.1-3-.11-4.49a8.66,8.66,0,0,1,.17-1.83,1.86,1.86,0,0,1,1.43-1.51,3.26,3.26,0,0,1,.87-.12c2,0,3.94,0,5.91,0a6.38,6.38,0,0,1,1.23.16.85.85,0,0,1,.69,1,2.5,2.5,0,0,1-.62,1.31l-1.24,1.55a6.71,6.71,0,0,0-1.37,4c0,.52,0,1,0,1.55,0,1.82-.11,3.63-.13,5.45a9.37,9.37,0,0,0,.19,1.75,2.79,2.79,0,0,0,2.78,2.29c1.45.08,2.89.14,4.34.15q12.06,0,24.13,0a12.93,12.93,0,0,0,2.55-.28A2.62,2.62,0,0,0,262,98.85a21.68,21.68,0,0,0,.15-2.42q0-2.58,0-5.16c0-.91,0-1.82-.15-2.72a5.18,5.18,0,0,0-1-2.43c-.55-.75-1.14-1.47-1.68-2.23a2.85,2.85,0,0,1-.37-.79.74.74,0,0,1,.33-.9,2.72,2.72,0,0,1,1.38-.45c.29,0,.59,0,.88,0h31.65a5.78,5.78,0,0,1,1.1.11,2,2,0,0,1,1.77,2c0,1.17-.05,2.35-.09,3.53,0,.24,0,.49,0,.74,0,1.5,0,3,0,4.5s-.11,3.23-.13,4.85a6,6,0,0,0,.23,1.52,2.48,2.48,0,0,0,1.92,1.84,6.76,6.76,0,0,0,1.61.2h31.13a6.55,6.55,0,0,0,1.6-.19c1.51-.39,2.06-1.2,2.31-2.88a3.2,3.2,0,0,0,0-.44q0-4,0-8a5.7,5.7,0,0,0-.8-3.1,18,18,0,0,0-1.54-2A3.85,3.85,0,0,1,331.42,82.58Z"/><path d="M229.24,185.81l-.44.83a14,14,0,0,1-1.76.3c-1,0-2.07,0-3.1,0a24.44,24.44,0,0,1-2.7-.27A2.41,2.41,0,0,1,219.3,185c-.43-1.17-.83-2.35-1.22-3.54q-1-3-1.92-6c-.38-1.2-.73-2.4-1.1-3.59-.47-1.5-.94-3-1.42-4.49-.36-1.17-.73-2.34-1.1-3.51-.48-1.52-1-3-1.45-4.56s-1-3.09-1.45-4.63L208,149.35c-.29-.91-.56-1.83-.85-2.74l-1.17-3.72c-.65-2.08-1.27-4.18-2-6.25s-1.33-4-2.06-5.91a3.88,3.88,0,0,0-1.1-1.8c-.21-.16-.45-.29-.65-.42a1.69,1.69,0,0,0-1,1.17,6.34,6.34,0,0,0-.29,1.36c-.08,1-.16,2-.16,2.94,0,11.9.06,23.81-.05,35.71,0,4.91,0,9.83-.11,14.74a3,3,0,0,1-.14.94,2,2,0,0,1-1.77,1.44,42.59,42.59,0,0,1-5.3.13,8.48,8.48,0,0,1-1.31-.15,1,1,0,0,1-.86-1.36,3.24,3.24,0,0,1,.46-.83c.44-.61.9-1.22,1.38-1.81a6.12,6.12,0,0,0,1.34-4c0-6,0-11.95,0-17.92q0-21.61,0-43.24a13.53,13.53,0,0,1,.16-1.9,2,2,0,0,1,1.61-1.59,4.32,4.32,0,0,1,.87-.11c3.44,0,6.89,0,10.33,0a2.83,2.83,0,0,1,2.37,1,3.66,3.66,0,0,1,.57,1c.31.8.58,1.62.82,2.44q1.45,5,2.9,10t3,10c.39,1.29.83,2.57,1.29,3.84a5.64,5.64,0,0,0,1.2,2.08c.45.46.66.44,1.12,0a2.67,2.67,0,0,0,.62-1.76,70.89,70.89,0,0,0,.14-7.14c0-1.6.07-3.2,0-4.8-.22-3.73-.07-7.47-.14-11.2,0-.32-.12-.63-.11-1,0-1,.05-2,.16-2.93a1.63,1.63,0,0,1,1.11-1.28,2.74,2.74,0,0,1,.92-.25,14.18,14.18,0,0,1,2.35,0,2.29,2.29,0,0,1,2.22,2.48c0,.29,0,.59,0,.88v58.14c0,.81,0,1.62,0,2.43a20.57,20.57,0,0,0,.33,2.84,6.29,6.29,0,0,0,1.39,2.41c.35.47.75.91,1.07,1.4A9,9,0,0,1,229.24,185.81Z"/><path d="M149.41,142.68c0,8.83.06,17.66,0,26.49,0,2.87-.08,5.75-.08,8.62a8.93,8.93,0,0,0,.41,3.2,5,5,0,0,0,.55,1.11c.53.73,1.13,1.41,1.67,2.15a5.49,5.49,0,0,1,.65,1.22c.17.44,0,.69-.38.9a1.87,1.87,0,0,1-.84.26,24.94,24.94,0,0,1-3,.08,32.09,32.09,0,0,0-3.54-.06c-.74,0-1.47-.07-2.2-.16a2.18,2.18,0,0,1-2-2.21c0-.44,0-.88,0-1.33q0-20.47,0-40.95a8.57,8.57,0,0,0-.4-3,1.54,1.54,0,0,0-2.22-1,5.76,5.76,0,0,0-1.5,1q-3.74,3.67-7.42,7.41a5.48,5.48,0,0,0-1.75,3.85c0,1.25-.12,2.5-.12,3.75q0,14.43,0,28.85a11.19,11.19,0,0,1-.14,1.83,1.85,1.85,0,0,1-1.95,1.73c-.44,0-.89,0-1.33,0-2,0-4.08,0-6.12,0a17,17,0,0,1-2.13-.16,1.11,1.11,0,0,1-.86-1.86,14.19,14.19,0,0,1,1.25-1.64,6.45,6.45,0,0,0,1.71-4.65c0-.32,0-.64,0-1,.32-20.13,0-40.27.15-60.41,0-.56.11-1.12.12-1.69a2.09,2.09,0,0,1,2-1.95c1.75,0,3.49,0,5.24,0a2,2,0,0,1,2,2,16.47,16.47,0,0,1,.14,2c0,5.31,0,10.62,0,15.94a15.9,15.9,0,0,0,.16,1.68,2,2,0,0,0,.84,1.33,1.11,1.11,0,0,0,1,.2,4,4,0,0,0,1.77-1q3-3,6.06-5.92c.7-.69,1.37-1.41,2-2.16a5.65,5.65,0,0,0,1.28-3.24c.24-2.7.05-5.4.13-8.1a6.3,6.3,0,0,1,.21-1.3,1.63,1.63,0,0,1,1.42-1.22,8.19,8.19,0,0,1,1.31-.13c1,0,2.07,0,3.1,0a10.49,10.49,0,0,1,1.24.15,1.6,1.6,0,0,1,1.39,1.34,7.2,7.2,0,0,1,.18,1.6q0,12.69,0,25.38v1Z"/><path d="M414.6,166.54c0,5.38,0,10.77,0,16.15a12.45,12.45,0,0,1-.17,1.83,2.15,2.15,0,0,1-2.14,1.69c-.22,0-.44,0-.66,0-2,0-4,0-6,0a14.13,14.13,0,0,1-1.83-.16,1,1,0,0,1-.78-1.67c.39-.65.83-1.28,1.23-1.92a5.58,5.58,0,0,0,.9-2.77c.29-6.29.06-12.58.12-18.87,0-2.76,0-5.51,0-8.26,0-2.36,0-4.71,0-7.07s0-4.9,0-7.35,0-4.87,0-7.31v-7.38c0-2.43,0-4.87,0-7.3a6.46,6.46,0,0,1,.15-1.46,1.76,1.76,0,0,1,1.46-1.37,6.41,6.41,0,0,1,1.31-.14c1.08,0,2.17,0,3.25,0a10.89,10.89,0,0,1,1.39.13,1.83,1.83,0,0,1,1.54,1.49,6.6,6.6,0,0,1,.18,1.6c0,1.48,0,3,0,4.43,0,1.25.06,2.5.17,3.75a6.78,6.78,0,0,0,.45,1.7.8.8,0,0,0,1.45.24,6.11,6.11,0,0,0,1.15-2.2c.69-2,1.3-4.07,1.94-6.11.32-1,.65-2.06.94-3.1a2.67,2.67,0,0,1,2.59-2,16.44,16.44,0,0,1,4.26.12,2.12,2.12,0,0,1,.82.29,1.31,1.31,0,0,1,.69,1.36c-.09.52-.14,1.07-.28,1.58-.74,2.68-1.51,5.34-2.28,8-.31,1.08-.65,2.16-1,3.24a10.64,10.64,0,0,0-.19,5.6c.68,2.79,1.31,5.59,2,8.39.72,3,1.48,6,2.2,9,.55,2.29,1.07,4.59,1.62,6.88.36,1.48.75,3,1.11,4.43.57,2.39,1.12,4.78,1.69,7.17.21.89.44,1.76.66,2.65s.41,1.71.63,2.57c.17.64.31,1.29.53,1.91a3.49,3.49,0,0,0,3.2,2.43c1.39,0,2.79.08,4.19.14a4.25,4.25,0,0,1,1,.15c1,.32,1.14.87.89,1.84a5.16,5.16,0,0,1-.59,1.26c-.53.91-1.07,1.81-1.63,2.7a3.37,3.37,0,0,1-2.93,1.56c-3,.08-6,.11-9.06.16a2.5,2.5,0,0,1-2.21-1,4,4,0,0,1-.59-1.33c-.54-2.27-1-4.55-1.53-6.82q-.6-2.67-1.18-5.32c-.63-2.88-1.27-5.76-1.9-8.63-.79-3.6-1.57-7.19-2.37-10.79-.38-1.7-.79-3.39-1.19-5.09A3.39,3.39,0,0,0,419,146a1.56,1.56,0,0,0-1.56-.43,3,3,0,0,0-1.78,1.22,5.49,5.49,0,0,0-1.06,3.31c0,5.49,0,11,0,16.46Z"/><path d="M331.41,185.22a2.75,2.75,0,0,1,.71-1.62,14.36,14.36,0,0,0,1.57-2.22,6.09,6.09,0,0,0,.64-2.92V161.27q0-22,0-44c0-.68.08-1.36.13-2a1.93,1.93,0,0,1,2-1.91c1.74-.09,3.49,0,5.24,0a2,2,0,0,1,2,1.68,9.48,9.48,0,0,1,.2,1.75c0,3.08,0,6.15,0,9.22a3,3,0,0,0,1,2.44,2.11,2.11,0,0,0,.74.45,10.76,10.76,0,0,0,2.09.36,14.2,14.2,0,0,0,3.38-.12,3.38,3.38,0,0,0,2.72-2.49c.26-.89.45-1.81.69-2.71a3.26,3.26,0,0,1,1.49-2.25,2,2,0,0,1,2.89,1.12,3.79,3.79,0,0,1,.17,1.16q0,10.26,0,20.51a4.37,4.37,0,0,1-.27,1.43,1.79,1.79,0,0,1-2,1.17,2.45,2.45,0,0,1-2.15-1.66c-.34-.94-.63-1.91-1-2.86a3.94,3.94,0,0,0-1.65-2.1,3.66,3.66,0,0,0-1.83-.51,19.48,19.48,0,0,0-3.89.09,3,3,0,0,0-2.4,2.4,10.21,10.21,0,0,0-.17,1.83q0,15.27,0,30.54a6.57,6.57,0,0,0,.16,1.53,2.41,2.41,0,0,0,1.8,2,10.7,10.7,0,0,0,2.09.33c2,.05,4.09,0,6.13,0a9.29,9.29,0,0,0,1.74-.21,3.26,3.26,0,0,0,2.57-2.64c.41-1.72.77-3.45,1.14-5.18.34-1.56.67-3.12,1-4.67.09-.41.26-.79.39-1.19a2.1,2.1,0,0,1,1.53-1.36,7.79,7.79,0,0,1,4,0,2.18,2.18,0,0,1,1.46,2.17c.07,2,.11,3.92.16,5.89s0,4.12.18,6.18,0,4.12.12,6.18a1.94,1.94,0,0,1-.79,1.74,2.51,2.51,0,0,1-.9.44,10.21,10.21,0,0,1-1.83.17q-15.09,0-30.17,0a16.51,16.51,0,0,1-2-.16A1.59,1.59,0,0,1,331.41,185.22Z"/><path d="M270.28,145.66v29.07a15.85,15.85,0,0,0,.14,1.68,3,3,0,0,0,3,2.43H278c1.08,0,2.17,0,3.25,0a3.27,3.27,0,0,0,3.42-2.49,43.09,43.09,0,0,0,1-4.22c.47-2.11.89-4.23,1.39-6.33a2.5,2.5,0,0,1,1.51-2,5.26,5.26,0,0,1,1.29-.25c.67,0,1.33,0,2,0a2.34,2.34,0,0,1,2.51,2.47q.09,3.35.16,6.7c.05,2.11,0,4.23.18,6.33.12,1.62.08,3.24.11,4.86,0,1.91-1,2.38-2.41,2.52a4.51,4.51,0,0,1-.52,0H260.28a6,6,0,0,1-1.46-.17c-.95-.24-1.19-.9-.64-1.73a17.53,17.53,0,0,1,1.25-1.72,6.36,6.36,0,0,0,1.4-4.24q0-7.53,0-15.05,0-23.38,0-46.77a7.78,7.78,0,0,1,.2-1.67,1.69,1.69,0,0,1,1.4-1.35,8.71,8.71,0,0,1,1.6-.18c1,0,2,0,3,0a10.16,10.16,0,0,1,1.46.14,2,2,0,0,1,1.74,2c0,.42,0,.84,0,1.26v28.84Z"/><path d="M50.11,150q0-16.34,0-32.68a19.08,19.08,0,0,1,.16-2.13A1.84,1.84,0,0,1,52,113.62a25.37,25.37,0,0,1,5.37-.12,2,2,0,0,1,2.19,2.1,60.1,60.1,0,0,1,.11,6.71c0,.55,0,1.11,0,1.67s-.1,1.32-.1,2q0,24,0,48a11.78,11.78,0,0,0,.14,1.68,2.61,2.61,0,0,0,2.18,2.3,8.53,8.53,0,0,0,1.75.19c2,0,4,0,6,0a11.61,11.61,0,0,0,2-.25,2.76,2.76,0,0,0,2-1.53,12.07,12.07,0,0,0,1-3.16c.53-2.24,1-4.5,1.52-6.75a10.78,10.78,0,0,1,.42-1.33,2.2,2.2,0,0,1,1.54-1.46,4.28,4.28,0,0,1,2.19,0,2.19,2.19,0,0,1,1.58,2.31c.08,2.09.11,4.17.16,6.26s0,4.13.18,6.18c.14,1.87.07,3.74.1,5.6a4.31,4.31,0,0,1-.14,1,1.72,1.72,0,0,1-1.71,1.37c-1,.09-2.06.15-3.08.15-7.8,0-15.6,0-23.39,0a13,13,0,0,1-2.47-.34,1.51,1.51,0,0,1-1.2-1.42,14.61,14.61,0,0,1-.16-2.2Q50.11,166.27,50.11,150Z"/><path d="M81,41.09c0,.75-.9,1.36-2,1.36H49.46c-1.1,0-2-.61-2-1.36s.9-1.36,2-1.36H79C80.11,39.73,81,40.34,81,41.09Z"/><path d="M187,49.25c-1.32,0-1.67-.26-2-1.55-.49-1.92-.94-3.85-1.42-5.78a6.43,6.43,0,0,0-.37-1.15c-.09-.17-.32-.27-.48-.41-.12.15-.3.29-.35.46-.29,1-.55,2-.8,3-.34,1.36-.66,2.72-1,4.07-.25,1-.55,1.26-1.59,1.35a5.77,5.77,0,0,1-.72,0c-1.1-.08-1.39-.3-1.63-1.36-.82-3.6-1.61-7.2-2.41-10.79-.18-.8-.36-1.59-.53-2.38s.08-1.3,1-1.4a5.53,5.53,0,0,1,1.15,0c.69.08,1,.56,1.1,1.19l1.17,6.09a11.29,11.29,0,0,0,.34,1.42c.07.19.3.33.45.5.14-.16.35-.3.4-.48.32-1.15.6-2.31.88-3.47.32-1.34.61-2.69,1-4,.26-1,.62-1.28,1.75-1.27s1.41.28,1.65,1.32c.51,2.11,1,4.22,1.48,6.33a8.67,8.67,0,0,0,.35,1.16c.06.17.27.38.4.37s.33-.22.39-.38a7.9,7.9,0,0,0,.32-1.18c.38-2,.8-4,1.13-6,.28-1.73,1.29-1.8,2.86-1.44.22.05.48.51.48.78a7.38,7.38,0,0,1-.28,1.67q-1.29,5.86-2.6,11.74C188.74,49,188.37,49.26,187,49.25Z"/><path d="M334.13,41.18c0-2.13,0-4.25,0-6.38,0-1.15.27-1.52,1.41-1.52,2,0,4.08.06,6.12.21a4.9,4.9,0,0,1,2,.69,4,4,0,0,1,.94,6c-.55.64-.59.94,0,1.45A4.09,4.09,0,0,1,345.74,46,3.84,3.84,0,0,1,342.28,49a66.38,66.38,0,0,1-6.91.23c-.92,0-1.23-.43-1.24-1.38,0-2.21,0-4.42,0-6.63Zm3.38,3.18h0c0,.41,0,.81,0,1.21a.87.87,0,0,0,.88.9,16,16,0,0,0,2.3,0,2,2,0,0,0-.13-4.08,17.91,17.91,0,0,0-1.94,0c-.8,0-1.1.35-1.13,1.17C337.5,43.8,337.51,44.08,337.51,44.36Zm0-6.38c0,.34,0,.68,0,1a.8.8,0,0,0,.78.85,12.93,12.93,0,0,0,2.64-.17,1.83,1.83,0,0,0-.13-3.53A6.5,6.5,0,0,0,339.5,36C337.62,36,337.5,36.1,337.52,38Z"/><path d="M233.2,41.27c0-2,0-4.05,0-6.08a6.06,6.06,0,0,1,.05-.85,1,1,0,0,1,1.06-1c1.62,0,3.24-.08,4.86,0a10.18,10.18,0,0,1,2.8.45,4.73,4.73,0,0,1,1.84,7.63l-.61.59c-.71.69-.78.92-.33,1.81.61,1.23,1.28,2.44,1.92,3.66a5.82,5.82,0,0,1,.34.77c.16.49-.06.78-.52.93a2.56,2.56,0,0,1-3.29-1.37l-1.68-3.3a1.82,1.82,0,0,0-1.89-1c-.81,0-1.15.34-1.17,1.15s-.05,1.86,0,2.79c.09,2-1.14,2.08-2.68,1.7-.25-.06-.48-.43-.58-.71a2.86,2.86,0,0,1-.11-1C233.19,45.32,233.2,43.29,233.2,41.27Zm3.39-3h0c0,.49,0,1,0,1.46s.28.85.77.86a14.08,14.08,0,0,0,2.6-.08,2,2,0,0,0,1.63-2.05c0-1.25-.46-2.07-1.55-2.28a12.25,12.25,0,0,0-2.64-.14.85.85,0,0,0-.82.9C236.57,37.4,236.59,37.85,236.59,38.29Z"/><path d="M290,49.29c-.77,0-1.47-.06-2.18-.11a1,1,0,0,1-1-1,7,7,0,0,1-.07-.91q0-6,0-12c0-1.8.27-2.08,2.08-2.07,1.13,0,2.26,0,3.4.08a7,7,0,0,1,6.65,6.4,10.39,10.39,0,0,1-.67,5.43,6.65,6.65,0,0,1-5.5,4C291.76,49.25,290.83,49.24,290,49.29Zm.14-8h0v4.13c0,.51.18,1,.73,1A3.64,3.64,0,0,0,295,44.5a8.52,8.52,0,0,0,.33-5.59A3.45,3.45,0,0,0,291.5,36c-1.1,0-1.39.29-1.4,1.41C290.08,38.7,290.09,40,290.09,41.25Z"/><path d="M260.8,41.25q0-3.18,0-6.38c0-1.18.31-1.57,1.48-1.59q3.9-.08,7.78,0c1.12,0,1.42.4,1.42,1.39S271.12,36,270.21,36c-1.48,0-3,0-4.44,0s-1.58.25-1.59,1.6c0,2,.06,2.07,2.09,2.07,1,0,1.9,0,2.85,0s1.31.44,1.28,1.45c0,.8-.44,1.15-1.38,1.16-1.17,0-2.35,0-3.52,0-1,0-1.3.32-1.32,1.32,0,.51,0,1,0,1.52,0,1,.32,1.29,1.33,1.3,1.32,0,2.64,0,3.95,0a7,7,0,0,1,.79,0,1.36,1.36,0,0,1,1.07,2.12,1.11,1.11,0,0,1-.59.47,3.85,3.85,0,0,1-1,.12H262.6c-1.46,0-1.79-.34-1.8-1.8Z"/><path d="M207.28,41.21c0-2.13,0-4.25,0-6.38,0-1.21.28-1.55,1.49-1.56q3.79-.06,7.6,0c1.2,0,1.63.48,1.58,1.5a1.08,1.08,0,0,1-1.1,1.2c-.26,0-.52,0-.78,0H212c-1,0-1.32.31-1.34,1.36,0,.4,0,.81,0,1.21,0,.74.34,1.07,1.1,1.09,1,0,2.06,0,3.1,0a7.86,7.86,0,0,1,.84,0c.91.12,1.22.51,1.17,1.44s-.45,1.16-1.32,1.17c-1,0-2.07,0-3.1,0-1.63,0-1.8.18-1.8,1.82,0,.43,0,.86,0,1.28,0,.71.35,1,1.07,1,1.34,0,2.68,0,4,0,.33,0,.65,0,1,0a1.34,1.34,0,0,1,1.11,2.06,1.18,1.18,0,0,1-.63.51,3.85,3.85,0,0,1-1.08.13h-7a4.87,4.87,0,0,1-.54,0c-1-.09-1.29-.41-1.3-1.39,0-2.21,0-4.42,0-6.63Z"/><path d="M117.89,41.22c0-2.17,0-4.34,0-6.5,0-1.07.24-1.41,1.29-1.43a49,49,0,0,1,6.18.12,5.07,5.07,0,0,1-.29,10.14c-.87.08-1.74.07-2.61.11s-1.23.38-1.26,1.23,0,2,0,2.92-.32,1.34-1.33,1.42a4.17,4.17,0,0,1-.79,0c-.88-.1-1.16-.4-1.17-1.3C117.88,45.68,117.89,43.45,117.89,41.22Zm5.41-.35a10.09,10.09,0,0,0,1.1,0,2.21,2.21,0,0,0,2.25-2.23,2.4,2.4,0,0,0-2.16-2.57,15.21,15.21,0,0,0-2.24,0,1,1,0,0,0-1,1c0,.59,0,1.17,0,1.76C121.18,40.75,121.34,40.9,123.3,40.87Z"/><path d="M368.3,46.05c0,.69,0,1.38,0,2.07a1,1,0,0,1-.95,1.06c-.14,0-.28,0-.43.06-1.53.11-1.93-.26-1.93-1.79q0-1.19,0-2.37a6.4,6.4,0,0,0-.79-3.14c-1.23-2.31-2.4-4.64-3.6-7a3.06,3.06,0,0,1-.28-.67.67.67,0,0,1,.57-.94,6,6,0,0,1,2,0,2.1,2.1,0,0,1,1,1c.66,1.3,1.21,2.65,1.86,4a5.89,5.89,0,0,0,.89,1.06,4.86,4.86,0,0,0,.88-1c.65-1.28,1.21-2.61,1.82-3.91a2.54,2.54,0,0,1,3.29-1.12.69.69,0,0,1,.31,1c-.24.56-.51,1.1-.79,1.64-.95,1.86-1.86,3.74-2.89,5.55A8.26,8.26,0,0,0,368.3,46.05Z"/><path d="M152,33.1a6.37,6.37,0,0,1,6.24,4.59c.33,1.13,0,1.53-1.15,1.61a2,2,0,0,1-2.27-1.42,2.85,2.85,0,0,0-2.84-2,3,3,0,0,0-2.92,2c-.6,1.32-1.11,1.59-2.56,1.37-.84-.13-1.08-.47-.89-1.3a6.39,6.39,0,0,1,5.85-4.86Z"/><path d="M151.9,49.4a6.33,6.33,0,0,1-6.3-4.82c-.22-.78.05-1.22.86-1.31a7.69,7.69,0,0,1,1.27,0,1.36,1.36,0,0,1,1.18.92,5.63,5.63,0,0,0,.88,1.5,3,3,0,0,0,4.91-.82c.05-.09.09-.18.13-.27a2,2,0,0,1,2.65-1.34.9.9,0,0,1,.81,1.28A6.27,6.27,0,0,1,151.9,49.4Z"/><path d="M436.37,40.88c0,.75-.9,1.36-2,1.36H404.82c-1.1,0-2-.61-2-1.36s.9-1.36,2-1.36h29.55C435.47,39.52,436.37,40.13,436.37,40.88Z"/></svg>